<?xml version="1.0" encoding="utf-8"?>
<!-- Generator: Adobe Illustrator 26.0.1, SVG Export Plug-In . SVG Version: 6.00 Build 0)  -->
<svg version="1.1" id="Layer_1" xmlns="http://www.w3.org/2000/svg" xmlns:xlink="http://www.w3.org/1999/xlink" x="0px" y="0px"
	 viewBox="0 0 256.4 256.4" style="enable-background:new 0 0 256.4 256.4;" xml:space="preserve">
<style type="text/css">
	.st0{fill:#00005B;}
	.st1{fill:#9999FF;}
</style>
<g>
	<path class="st0" d="M65.9,34.1h124.7c18.9,0,34.2,15.3,34.2,34.2v119.9c0,18.9-15.3,34.2-34.2,34.2H65.9
		c-18.9,0-34.2-15.3-34.2-34.2V68.3C31.7,49.4,47,34.1,65.9,34.1z"/>
	<g>
		<path class="st1" d="M107.5,146.7H77.6l-6.1,19c-0.2,0.8-0.8,1.2-1.5,1.1H54.9c-0.9,0-1.1-0.5-0.9-1.4L79.9,91
			c0.2-0.8,0.5-1.7,0.8-2.6c0.4-1.7,0.7-3.4,0.7-5.1c-0.1-0.4,0.2-0.8,0.7-0.9c0.1,0,0.2,0,0.2,0h20.6c0.5,0,1,0.2,1.1,0.7
			l29.2,82.5c0.2,0.9,0,1.3-0.8,1.3h-16.8c-0.5,0.1-1.1-0.3-1.3-0.9L107.5,146.7z M82.3,130.7h20.4c-0.5-1.7-1.1-3.7-1.9-5.8
			c-0.8-2.2-1.4-4.5-2.2-6.9c-0.8-2.5-1.5-4.9-2.3-7.4s-1.5-4.8-2.2-7.2c-0.7-2.3-1.2-4.4-1.8-6.2h-0.2c-0.8,3.5-1.6,6.9-2.7,10.4
			c-1.2,3.8-2.4,7.9-3.7,11.9C84.8,123.5,83.5,127.3,82.3,130.7L82.3,130.7z"/>
		<path class="st1" d="M194.8,103.4v49.3c0,2.2,0,4.1,0.1,5.8c0.1,1.7,0.2,3.2,0.2,4.4c0.2,1.3,0.2,2,0.3,2.9
			c0.1,0.8-0.2,1.1-0.9,1.1h-13.8c-0.7,0.1-1.3-0.3-1.5-0.9c-0.2-0.7-0.3-1.4-0.5-2c-0.2-0.5-0.2-1.1-0.2-1.7c-2.6,2.3-5.7,4-9.1,5
			c-2.9,0.8-5.9,1.2-9,1.2s-5.9-0.4-8.7-1.4c-2.6-0.9-5-2.4-6.9-4.4c-2.1-2.3-3.6-4.9-4.5-7.8c-1.1-3.7-1.7-7.5-1.6-11.4v-39.9
			c-0.1-0.5,0.2-1,0.8-1.1c0.1,0,0.2,0,0.2,0h15.4c0.5-0.1,1,0.2,1.1,0.8c0,0.1,0,0.2,0,0.2v37.8c0,3.5,0.8,6.3,2.3,8.4
			c1.5,2,4.7,3.1,8.3,3.1c1.9,0,3.7-0.3,5.5-1c1.9-0.7,3.5-1.5,5-2.6v-45.7c0-0.5,0.4-0.9,1.1-0.9H194c0.4-0.1,0.9,0.2,0.9,0.7
			C194.8,103.3,194.8,103.4,194.8,103.4z"/>
	</g>
</g>
</svg>
